<?xml version="1.0" encoding="UTF-8"?>
<svg width="103px" height="21px" viewBox="0 0 103 21" version="1.1" xmlns="http://www.w3.org/2000/svg" xmlns:xlink="http://www.w3.org/1999/xlink">
    <!-- Generator: Sketch 53 (72520) - https://sketchapp.com -->
    <title>Group 43</title>
    <desc>Created with Sketch.</desc>
    <g id="Page-1" stroke="none" stroke-width="1" fill="none" fill-rule="evenodd">
        <g id="Hilite" transform="translate(-24.000000, -18.000000)">
            <g id="Group-43" transform="translate(24.000000, 18.000000)">
                <g id="logo-mini">
                    <path d="M1.77635684e-15,-5.32907052e-15 L4.74106195,-5.32907052e-15 C10.5400518,-6.39432768e-15 15.2410619,4.70101013 15.2410619,10.5 L15.2410619,10.5 C15.2410619,16.2989899 10.5400518,21 4.74106195,21 L1.77635684e-15,21 L1.77635684e-15,-5.32907052e-15 Z" id="Rectangle-Copy-4" fill="#02DE84" transform="translate(7.620531, 10.500000) scale(-1, 1) translate(-7.620531, -10.500000) "></path>
                    <path d="M11.0844087,8.68965517 L16.7064205,8.68965517 C20.1058284,8.68965517 22.8615929,11.4454197 22.8615929,14.8448276 L22.8615929,14.8448276 C22.8615929,18.2442354 20.1058284,21 16.7064205,21 L11.0844087,21 L11.0844087,8.68965517 Z" id="Rectangle-Copy-5" fill="#8200FF" opacity="0.851376488"></path>
                    <rect id="Rectangle-Copy-6" fill="#21BB7C" x="11.0844087" y="0" width="4.15665326" height="8.68965517"></rect>
                    <rect id="Rectangle-Copy-7" fill="#A042FF" x="11.0844087" y="8.68965517" width="4.15665326" height="12.3103448"></rect>
                </g>
                <path d="M41.24,4.98 L41.24,18.18 L38.54,18.18 L38.54,12.48 L32.7,12.48 L32.7,18.18 L30,18.18 L30,4.98 L32.7,4.98 L32.7,10.04 L38.54,10.04 L38.54,4.98 L41.24,4.98 Z M45.42,3 C45.9,3 46.31,3.16 46.65,3.48 C46.99,3.8 47.16,4.2 47.16,4.68 C47.16,5.14666656 46.99,5.54 46.65,5.86 C46.31,6.18 45.9,6.34 45.42,6.34 C44.94,6.34 44.5333334,6.18 44.2,5.86 C43.8666666,5.54 43.7,5.14666656 43.7,4.68 C43.7,4.2 43.8666666,3.8 44.2,3.48 C44.5333334,3.16 44.94,3 45.42,3 Z M46.78,8.28 L46.78,18.18 L44.08,18.18 L44.08,8.28 L46.78,8.28 Z M52.16,3.18 L52.16,18.18 L49.46,18.18 L49.46,3.18 L52.16,3.18 Z M56.18,3 C56.66,3 57.07,3.16 57.41,3.48 C57.75,3.8 57.92,4.2 57.92,4.68 C57.92,5.14666656 57.75,5.54 57.41,5.86 C57.07,6.18 56.66,6.34 56.18,6.34 C55.7,6.34 55.2933334,6.18 54.96,5.86 C54.6266666,5.54 54.46,5.14666656 54.46,4.68 C54.46,4.2 54.6266666,3.8 54.96,3.48 C55.2933334,3.16 55.7,3 56.18,3 Z M57.54,8.28 L57.54,18.18 L54.84,18.18 L54.84,8.28 L57.54,8.28 Z M65.3,16 C65.46,16 65.8866666,15.9733334 66.58,15.92 L66.58,18.18 C65.94,18.34 65.32,18.42 64.72,18.42 C63.4666666,18.42 62.4933334,18.11 61.8,17.49 C61.1066666,16.87 60.76,15.94 60.76,14.7 L60.76,10.56 L59.2,10.56 L59.2,8.28 L60.76,8.28 L60.76,5.78 L63.46,5.78 L63.46,8.28 L66.26,8.28 L66.26,10.56 L63.46,10.56 L63.46,14.46 C63.46,15.02 63.6066666,15.4166666 63.9,15.65 C64.1933334,15.8833334 64.66,16 65.3,16 Z M77.82,12.66 C77.82,13.14 77.76,13.6333334 77.64,14.14 L70.68,14.14 C70.8533334,14.7666666 71.1833334,15.25 71.67,15.59 C72.1566666,15.93 72.76,16.1 73.48,16.1 C74.4533334,16.1 75.3733334,15.7666666 76.24,15.1 L77.36,16.94 C76.1866666,17.9266666 74.8666666,18.42 73.4,18.42 C71.84,18.42 70.5466666,17.9233334 69.52,16.93 C68.4933334,15.9366666 67.98,14.7066666 67.98,13.24 C67.98,11.7866666 68.4766666,10.56 69.47,9.56 C70.4633334,8.56 71.6933334,8.06 73.16,8.06 C74.5333334,8.06 75.6533334,8.5 76.52,9.38 C77.3866666,10.26 77.82,11.3533334 77.82,12.66 Z M73.06,10.24 C72.4866666,10.24 71.9866666,10.42 71.56,10.78 C71.1333334,11.14 70.84,11.6266666 70.68,12.24 L75.2,12.24 C75.1866666,11.6266666 74.9733334,11.14 74.56,10.78 C74.1466666,10.42 73.6466666,10.24 73.06,10.24 Z M96.78,4.98 L96.78,12.72 C96.78,14.4533334 96.2566666,15.8366666 95.21,16.87 C94.1633334,17.9033334 92.82,18.42 91.18,18.42 C89.54,18.42 88.1966666,17.9033334 87.15,16.87 C86.1033334,15.8366666 85.58,14.4533334 85.58,12.72 L85.58,4.98 L88.28,4.98 L88.28,12.92 C88.28,13.88 88.55,14.62 89.09,15.14 C89.63,15.66 90.3266666,15.92 91.18,15.92 C92.0466666,15.92 92.7466666,15.66 93.28,15.14 C93.8133334,14.62 94.08,13.88 94.08,12.92 L94.08,4.98 L96.78,4.98 Z M102.4,4.98 L102.4,18.18 L99.7,18.18 L99.7,4.98 L102.4,4.98 Z" id="HiliteUI" fill="#FFFFFF" fill-rule="nonzero"></path>
            </g>
        </g>
    </g>
</svg>